<svg width="30" height="30" viewBox="0 0 30 30" fill="none" xmlns="http://www.w3.org/2000/svg">
<path d="M21.3715 11.724C21.3836 11.606 21.2911 11.5035 21.1725 11.5035H17.3486V8.8503C17.3486 7.85389 18.009 7.62158 18.4742 7.62158C18.8565 7.62158 20.5467 7.62158 21.1301 7.62158C21.2406 7.62158 21.329 7.53204 21.329 7.42158V3.44037C21.329 3.33021 21.2399 3.2408 21.1298 3.24037L17.3973 3.2258C13.0327 3.2258 12.0395 6.49287 12.0395 8.5836V11.5035H9.71538C9.60492 11.5035 9.51538 11.5931 9.51538 11.7035V15.8173C9.51538 15.9278 9.60492 16.0173 9.71538 16.0173H12.0395C12.0395 21.2364 12.0395 27.4188 12.0395 28.5923C12.0395 28.7028 12.129 28.7898 12.2395 28.7898H17.1486C17.2591 28.7898 17.3486 28.7026 17.3486 28.5922C17.3486 27.4125 17.3486 21.1768 17.3486 16.0173H20.7505C20.8531 16.0173 20.939 15.9398 20.9495 15.8377L21.3715 11.724Z" stroke="white" stroke-width="2"/>
</svg>
