<svg width="32" height="32" viewBox="0 0 32 32" fill="none" xmlns="http://www.w3.org/2000/svg">
<path d="M15.9971 2.34668C12.289 2.34668 11.8241 2.3624 10.3678 2.42884C8.91457 2.49518 7.92206 2.72595 7.05356 3.06349C6.15574 3.41241 5.39433 3.87926 4.6353 4.63828C3.87627 5.39731 3.40942 6.15872 3.0605 7.05654C2.72297 7.92499 2.4922 8.9175 2.42586 10.3707C2.35941 11.827 2.34375 12.292 2.34375 16C2.34375 19.708 2.35941 20.1729 2.42586 21.6292C2.4922 23.0824 2.72297 24.0749 3.0605 24.9434C3.40942 25.8412 3.87627 26.6026 4.6353 27.3617C5.39433 28.1207 6.15574 28.5876 7.05356 28.9365C7.92206 29.274 8.91457 29.5048 10.3678 29.5711C11.8241 29.6375 12.289 29.6533 15.9971 29.6533C19.705 29.6533 20.17 29.6375 21.6263 29.5711C23.0795 29.5048 24.072 29.274 24.9405 28.9365C25.8383 28.5876 26.5997 28.1207 27.3588 27.3617C28.1178 26.6026 28.5847 25.8412 28.9336 24.9434C29.2711 24.0749 29.5019 23.0824 29.5682 21.6292C29.6346 20.1729 29.6503 19.708 29.6503 16C29.6503 12.292 29.6346 11.827 29.5682 10.3707C29.5019 8.9175 29.2711 7.92499 28.9336 7.05654C28.5847 6.15872 28.1178 5.39731 27.3588 4.63828C26.5997 3.87926 25.8383 3.41241 24.9405 3.06349C24.072 2.72595 23.0795 2.49518 21.6263 2.42884C20.17 2.3624 19.705 2.34668 15.9971 2.34668ZM15.9971 4.80678C19.6426 4.80678 20.0745 4.82066 21.5141 4.88634C22.8453 4.9471 23.5683 5.16952 24.0494 5.35645C24.6867 5.60412 25.1415 5.90004 25.6192 6.37778C26.097 6.85553 26.3929 7.3104 26.6406 7.94765C26.8275 8.42875 27.05 9.15169 27.1107 10.4829C27.1763 11.9226 27.1903 12.3544 27.1903 16C27.1903 19.6455 27.1763 20.0774 27.1107 21.5171C27.05 22.8482 26.8275 23.5712 26.6406 24.0523C26.3929 24.6896 26.097 25.1444 25.6192 25.6222C25.1415 26.0999 24.6867 26.3958 24.0494 26.6435C23.5683 26.8305 22.8453 27.0529 21.5141 27.1136C20.0747 27.1793 19.6429 27.1932 15.9971 27.1932C12.3512 27.1932 11.9195 27.1793 10.4799 27.1136C9.14876 27.0529 8.42582 26.8305 7.94472 26.6435C7.30742 26.3958 6.8526 26.0999 6.3748 25.6222C5.89706 25.1444 5.60114 24.6896 5.35352 24.0523C5.16654 23.5712 4.94411 22.8482 4.88336 21.5171C4.81767 20.0774 4.8038 19.6455 4.8038 16C4.8038 12.3544 4.81767 11.9226 4.88336 10.4829C4.94411 9.15169 5.16654 8.42875 5.35352 7.94765C5.60114 7.3104 5.89706 6.85553 6.3748 6.37778C6.8526 5.90004 7.30742 5.60412 7.94472 5.35645C8.42582 5.16952 9.14876 4.9471 10.4799 4.88634C11.9196 4.82066 12.3515 4.80678 15.9971 4.80678Z" fill="white"/>
<path d="M15.9955 20.551C13.482 20.551 11.4444 18.5134 11.4444 15.9999C11.4444 13.4864 13.482 11.4488 15.9955 11.4488C18.509 11.4488 20.5466 13.4864 20.5466 15.9999C20.5466 18.5134 18.509 20.551 15.9955 20.551ZM15.9955 8.98877C12.1233 8.98877 8.98438 12.1277 8.98438 15.9999C8.98438 19.8721 12.1233 23.0111 15.9955 23.0111C19.8677 23.0111 23.0067 19.8721 23.0067 15.9999C23.0067 12.1277 19.8677 8.98877 15.9955 8.98877Z" fill="white"/>
<path d="M24.9252 8.71186C24.9252 9.61673 24.1917 10.3502 23.2868 10.3502C22.382 10.3502 21.6484 9.61673 21.6484 8.71186C21.6484 7.80699 22.382 7.07349 23.2868 7.07349C24.1917 7.07349 24.9252 7.80699 24.9252 8.71186Z" fill="white"/>
</svg>
