<svg width="717" height="71" viewBox="0 0 717 71" fill="none" xmlns="http://www.w3.org/2000/svg">
<path d="M49.048 4.872L48.2357 6.69962L49.048 4.872ZM59.704 13.704L58.0271 14.794V14.794L59.704 13.704ZM59.704 40.584L58.0271 39.494L59.704 40.584ZM49.048 49.416L48.2357 47.5884L49.048 49.416ZM23.128 52.488V50.488H21.128V52.488H23.128ZM23.128 69V71H25.128V69H23.128ZM0.472 69H-1.528V71H0.472V69ZM0.472 1.8V-0.200005H-1.528V1.8H0.472ZM38.296 33L39.613 34.5051L39.6304 34.4899L39.6475 34.4743L38.296 33ZM38.296 21.384L36.9446 22.8583L36.9616 22.8739L36.979 22.8892L38.296 21.384ZM23.128 19.272V17.272H21.128V19.272H23.128ZM23.128 35.016H21.128V37.016H23.128V35.016ZM32.824 3.8C38.8152 3.8 43.9354 4.78834 48.2357 6.69962L49.8603 3.04437C44.9446 0.859648 39.2488 -0.200005 32.824 -0.200005V3.8ZM48.2357 6.69962C52.5273 8.607 55.763 11.3107 58.0271 14.794L61.3809 12.614C58.653 8.41727 54.7847 5.23299 49.8603 3.04437L48.2357 6.69962ZM58.0271 14.794C60.2879 18.2721 61.448 22.3638 61.448 27.144H65.448C65.448 21.6842 64.1121 16.8159 61.3809 12.614L58.0271 14.794ZM61.448 27.144C61.448 31.9242 60.2879 36.0159 58.0271 39.494L61.3809 41.674C64.1121 37.4721 65.448 32.6038 65.448 27.144H61.448ZM58.0271 39.494C55.763 42.9773 52.5273 45.681 48.2357 47.5884L49.8603 51.2436C54.7847 49.055 58.653 45.8707 61.3809 41.674L58.0271 39.494ZM48.2357 47.5884C43.9354 49.4996 38.8152 50.488 32.824 50.488V54.488C39.2488 54.488 44.9446 53.4283 49.8603 51.2436L48.2357 47.5884ZM32.824 50.488H23.128V54.488H32.824V50.488ZM21.128 52.488V69H25.128V52.488H21.128ZM23.128 67H0.472V71H23.128V67ZM2.472 69V1.8H-1.528V69H2.472ZM0.472 3.8H32.824V-0.200005H0.472V3.8ZM31.384 37.016C34.7036 37.016 37.5668 36.2956 39.613 34.5051L36.979 31.4948C35.9532 32.3924 34.2084 33.016 31.384 33.016V37.016ZM39.6475 34.4743C41.6779 32.6131 42.6 30.0801 42.6 27.144H38.6C38.6 29.1999 37.9861 30.5709 36.9446 31.5257L39.6475 34.4743ZM42.6 27.144C42.6 24.2111 41.6782 21.6859 39.613 19.8788L36.979 22.8892C37.9858 23.7701 38.6 25.0849 38.6 27.144H42.6ZM39.6475 19.9097C37.6008 18.0336 34.7233 17.272 31.384 17.272V21.272C34.1887 21.272 35.9192 21.9184 36.9446 22.8583L39.6475 19.9097ZM31.384 17.272H23.128V21.272H31.384V17.272ZM21.128 19.272V35.016H25.128V19.272H21.128ZM23.128 37.016H31.384V33.016H23.128V37.016ZM126.75 51.912H128.75V49.912H126.75V51.912ZM126.75 69V71H128.75V69H126.75ZM70.8783 69H68.8783V71H70.8783V69ZM70.8783 1.8V-0.200005H68.8783V1.8H70.8783ZM125.502 1.8H127.502V-0.200005H125.502V1.8ZM125.502 18.888V20.888H127.502V18.888H125.502ZM93.1503 18.888V16.888H91.1503V18.888H93.1503ZM93.1503 26.76H91.1503V28.76H93.1503V26.76ZM121.566 26.76H123.566V24.76H121.566V26.76ZM121.566 43.08V45.08H123.566V43.08H121.566ZM93.1503 43.08V41.08H91.1503V43.08H93.1503ZM93.1503 51.912H91.1503V53.912H93.1503V51.912ZM124.75 51.912V69H128.75V51.912H124.75ZM126.75 67H70.8783V71H126.75V67ZM72.8783 69V1.8H68.8783V69H72.8783ZM70.8783 3.8H125.502V-0.200005H70.8783V3.8ZM123.502 1.8V18.888H127.502V1.8H123.502ZM125.502 16.888H93.1503V20.888H125.502V16.888ZM91.1503 18.888V26.76H95.1503V18.888H91.1503ZM93.1503 28.76H121.566V24.76H93.1503V28.76ZM119.566 26.76V43.08H123.566V26.76H119.566ZM121.566 41.08H93.1503V45.08H121.566V41.08ZM91.1503 43.08V51.912H95.1503V43.08H91.1503ZM93.1503 53.912H126.75V49.912H93.1503V53.912ZM164.272 52.104L165.929 50.9838L165.334 50.104H164.272V52.104ZM158.128 52.104V50.104H156.128V52.104H158.128ZM158.128 69V71H160.128V69H158.128ZM135.472 69H133.472V71H135.472V69ZM135.472 1.8V-0.200005H133.472V1.8H135.472ZM184.048 4.872L183.236 6.69962H183.236L184.048 4.872ZM194.704 13.704L193.027 14.794V14.794L194.704 13.704ZM195.184 39.72L193.474 38.682V38.682L195.184 39.72ZM185.776 48.264L184.859 46.4864L182.852 47.5217L184.123 49.3892L185.776 48.264ZM199.888 69V71H203.668L201.541 67.8747L199.888 69ZM175.696 69L174.039 70.1202L174.634 71H175.696V69ZM173.296 21.384L171.945 22.8583L171.962 22.8739L171.979 22.8892L173.296 21.384ZM158.128 19.272V17.272H156.128V19.272H158.128ZM158.128 35.016H156.128V37.016H158.128V35.016ZM173.296 33L174.613 34.5051L174.63 34.4899L174.647 34.4743L173.296 33ZM164.272 50.104H158.128V54.104H164.272V50.104ZM156.128 52.104V69H160.128V52.104H156.128ZM158.128 67H135.472V71H158.128V67ZM137.472 69V1.8H133.472V69H137.472ZM135.472 3.8H167.824V-0.200005H135.472V3.8ZM167.824 3.8C173.815 3.8 178.935 4.78834 183.236 6.69962L184.86 3.04437C179.945 0.859648 174.249 -0.200005 167.824 -0.200005V3.8ZM183.236 6.69962C187.527 8.607 190.763 11.3107 193.027 14.794L196.381 12.614C193.653 8.41727 189.785 5.23299 184.86 3.04437L183.236 6.69962ZM193.027 14.794C195.288 18.2721 196.448 22.3638 196.448 27.144H200.448C200.448 21.6842 199.112 16.8159 196.381 12.614L193.027 14.794ZM196.448 27.144C196.448 31.632 195.434 35.4541 193.474 38.682L196.894 40.758C199.286 36.8179 200.448 32.256 200.448 27.144H196.448ZM193.474 38.682C191.508 41.9204 188.662 44.5259 184.859 46.4864L186.693 50.0416C191.082 47.7781 194.508 44.6876 196.894 40.758L193.474 38.682ZM184.123 49.3892L198.235 70.1253L201.541 67.8747L187.429 47.1387L184.123 49.3892ZM199.888 67H175.696V71H199.888V67ZM177.353 67.8798L165.929 50.9838L162.615 53.2242L174.039 70.1202L177.353 67.8798ZM177.6 27.144C177.6 24.2111 176.678 21.6859 174.613 19.8788L171.979 22.8892C172.986 23.7701 173.6 25.0849 173.6 27.144H177.6ZM174.647 19.9097C172.601 18.0336 169.723 17.272 166.384 17.272V21.272C169.189 21.272 170.919 21.9184 171.945 22.8583L174.647 19.9097ZM166.384 17.272H158.128V21.272H166.384V17.272ZM156.128 19.272V35.016H160.128V19.272H156.128ZM158.128 37.016H166.384V33.016H158.128V37.016ZM166.384 37.016C169.704 37.016 172.567 36.2956 174.613 34.5051L171.979 31.4948C170.953 32.3924 169.208 33.016 166.384 33.016V37.016ZM174.647 34.4743C176.678 32.6131 177.6 30.0801 177.6 27.144H173.6C173.6 29.1999 172.986 30.5709 171.945 31.5257L174.647 34.4743ZM222.747 66.024L223.673 64.2512L222.747 66.024ZM209.211 53.544L207.502 54.582L207.507 54.591L209.211 53.544ZM209.211 17.352L210.915 18.3991L210.921 18.39L209.211 17.352ZM261.723 4.776L262.649 3.00318L261.723 4.776ZM275.259 17.352L273.55 18.39L273.555 18.399L275.259 17.352ZM275.259 53.544L276.963 54.5911L276.969 54.582L275.259 53.544ZM261.723 66.024L262.649 67.7968L261.723 66.024ZM249.819 50.184L250.848 51.899L250.855 51.8948L250.862 51.8906L249.819 50.184ZM255.291 44.328L257.052 45.2762L257.057 45.267L257.062 45.2577L255.291 44.328ZM255.291 26.568L253.52 27.4977L253.525 27.507L253.53 27.5162L255.291 26.568ZM249.819 20.712L248.755 22.4053L248.783 22.4229L248.812 22.4396L249.819 20.712ZM234.555 20.712L235.584 22.427L235.591 22.4228L235.598 22.4186L234.555 20.712ZM229.179 26.568L230.94 27.5162L230.945 27.507L230.95 27.4977L229.179 26.568ZM229.179 44.328L227.408 45.2577L227.413 45.267L227.418 45.2762L229.179 44.328ZM234.555 50.184L233.491 51.8773L233.519 51.8949L233.548 51.9116L234.555 50.184ZM242.235 68.536C235.289 68.536 229.116 67.0937 223.673 64.2512L221.821 67.7968C227.898 70.9703 234.718 72.536 242.235 72.536V68.536ZM223.673 64.2512C218.219 61.403 213.982 57.4879 210.915 52.4969L207.507 54.591C210.969 60.2241 215.755 64.629 221.821 67.7968L223.673 64.2512ZM210.921 52.506C207.86 47.4645 206.315 41.78 206.315 35.4H202.315C202.315 42.46 204.035 48.8715 207.502 54.582L210.921 52.506ZM206.315 35.4C206.315 29.0198 207.86 23.3716 210.915 18.399L207.507 16.3049C204.035 21.9564 202.315 28.3402 202.315 35.4H206.315ZM210.921 18.39C213.989 13.3365 218.225 9.39382 223.673 6.54881L221.821 3.00318C215.749 6.17418 210.962 10.6155 207.502 16.314L210.921 18.39ZM223.673 6.54881C229.116 3.70628 235.289 2.264 242.235 2.264V-1.736C234.718 -1.736 227.898 -0.170284 221.821 3.00318L223.673 6.54881ZM242.235 2.264C249.182 2.264 255.354 3.70628 260.797 6.54881L262.649 3.00318C256.572 -0.170284 249.753 -1.736 242.235 -1.736V2.264ZM260.797 6.54881C266.245 9.39381 270.482 13.3365 273.55 18.39L276.969 16.314C273.509 10.6155 268.721 6.17418 262.649 3.00318L260.797 6.54881ZM273.555 18.399C276.611 23.3716 278.155 29.0198 278.155 35.4H282.155C282.155 28.3402 280.436 21.9564 276.963 16.3049L273.555 18.399ZM278.155 35.4C278.155 41.78 276.611 47.4645 273.55 52.506L276.969 54.582C280.436 48.8715 282.155 42.46 282.155 35.4H278.155ZM273.555 52.4969C270.489 57.4879 266.251 61.403 260.797 64.2512L262.649 67.7968C268.715 64.629 273.502 60.2241 276.963 54.591L273.555 52.4969ZM260.797 64.2512C255.354 67.0937 249.182 68.536 242.235 68.536V72.536C249.753 72.536 256.572 70.9703 262.649 67.7968L260.797 64.2512ZM242.235 54.2C245.384 54.2 248.273 53.444 250.848 51.899L248.79 48.469C246.885 49.612 244.718 50.2 242.235 50.2V54.2ZM250.862 51.8906C253.484 50.2885 255.549 48.0679 257.052 45.2762L253.53 43.3798C252.346 45.5801 250.763 47.2635 248.776 48.4774L250.862 51.8906ZM257.062 45.2577C258.581 42.3651 259.307 39.0598 259.307 35.4H255.307C255.307 38.5242 254.69 41.1709 253.52 43.3983L257.062 45.2577ZM259.307 35.4C259.307 31.7418 258.581 28.4594 257.052 25.6198L253.53 27.5162C254.689 29.6686 255.307 32.2742 255.307 35.4H259.307ZM257.062 25.6383C255.559 22.775 253.482 20.5334 250.827 18.9844L248.812 22.4396C250.764 23.5786 252.336 25.241 253.52 27.4977L257.062 25.6383ZM250.884 19.0187C248.304 17.3973 245.403 16.6 242.235 16.6V20.6C244.7 20.6 246.855 21.2107 248.755 22.4053L250.884 19.0187ZM242.235 16.6C239.068 16.6 236.144 17.3971 233.512 19.0054L235.598 22.4186C237.574 21.2109 239.771 20.6 242.235 20.6V16.6ZM233.526 18.997C230.939 20.5495 228.904 22.7892 227.408 25.6383L230.95 27.4977C232.142 25.2268 233.692 23.5625 235.584 22.427L233.526 18.997ZM227.418 25.6198C225.889 28.4594 225.163 31.7418 225.163 35.4H229.163C229.163 32.2742 229.781 29.6686 230.94 27.5162L227.418 25.6198ZM225.163 35.4C225.163 39.0598 225.89 42.3651 227.408 45.2577L230.95 43.3983C229.781 41.171 229.163 38.5242 229.163 35.4H225.163ZM227.418 45.2762C228.914 48.0541 230.937 50.2722 233.491 51.8773L235.62 48.4907C233.693 47.2798 232.132 45.5939 230.94 43.3798L227.418 45.2762ZM233.548 51.9116C236.175 53.444 239.086 54.2 242.235 54.2V50.2C239.753 50.2 237.544 49.612 235.563 48.4564L233.548 51.9116ZM331.751 19.368H333.751V17.368H331.751V19.368ZM312.072 19.368H310.072V21.368H312.072V19.368ZM312.072 1.8V-0.200005H310.072V1.8H312.072ZM374.087 1.8H376.087V-0.200005H374.087V1.8ZM374.087 19.368V21.368H376.087V19.368H374.087ZM354.408 19.368V17.368H352.408V19.368H354.408ZM354.408 69V71H356.408V69H354.408ZM331.751 69H329.751V71H331.751V69ZM331.751 17.368H312.072V21.368H331.751V17.368ZM314.072 19.368V1.8H310.072V19.368H314.072ZM312.072 3.8H374.087V-0.200005H312.072V3.8ZM372.087 1.8V19.368H376.087V1.8H372.087ZM374.087 17.368H354.408V21.368H374.087V17.368ZM352.408 19.368V69H356.408V19.368H352.408ZM354.408 67H331.751V71H354.408V67ZM333.751 69V19.368H329.751V69H333.751ZM408.772 52.104L410.429 50.9838L409.834 50.104H408.772V52.104ZM402.628 52.104V50.104H400.628V52.104H402.628ZM402.628 69V71H404.628V69H402.628ZM379.972 69H377.972V71H379.972V69ZM379.972 1.8V-0.200005H377.972V1.8H379.972ZM428.548 4.872L427.736 6.69962L428.548 4.872ZM439.204 13.704L437.527 14.794L437.527 14.794L439.204 13.704ZM439.684 39.72L437.974 38.682V38.682L439.684 39.72ZM430.276 48.264L429.359 46.4864L427.352 47.5217L428.623 49.3892L430.276 48.264ZM444.388 69V71H448.168L446.041 67.8747L444.388 69ZM420.196 69L418.539 70.1202L419.134 71H420.196V69ZM417.796 21.384L416.445 22.8583L416.462 22.8739L416.479 22.8892L417.796 21.384ZM402.628 19.272V17.272H400.628V19.272H402.628ZM402.628 35.016H400.628V37.016H402.628V35.016ZM417.796 33L419.113 34.5051L419.13 34.4899L419.147 34.4743L417.796 33ZM408.772 50.104H402.628V54.104H408.772V50.104ZM400.628 52.104V69H404.628V52.104H400.628ZM402.628 67H379.972V71H402.628V67ZM381.972 69V1.8H377.972V69H381.972ZM379.972 3.8H412.324V-0.200005H379.972V3.8ZM412.324 3.8C418.315 3.8 423.435 4.78834 427.736 6.69962L429.36 3.04437C424.445 0.859648 418.749 -0.200005 412.324 -0.200005V3.8ZM427.736 6.69962C432.027 8.607 435.263 11.3107 437.527 14.794L440.881 12.614C438.153 8.41727 434.285 5.23299 429.36 3.04437L427.736 6.69962ZM437.527 14.794C439.788 18.2721 440.948 22.3638 440.948 27.144H444.948C444.948 21.6842 443.612 16.8159 440.881 12.614L437.527 14.794ZM440.948 27.144C440.948 31.632 439.934 35.4541 437.974 38.682L441.394 40.758C443.786 36.8179 444.948 32.256 444.948 27.144H440.948ZM437.974 38.682C436.008 41.9204 433.162 44.5259 429.359 46.4864L431.193 50.0416C435.582 47.7781 439.008 44.6876 441.394 40.758L437.974 38.682ZM428.623 49.3892L442.735 70.1253L446.041 67.8747L431.929 47.1387L428.623 49.3892ZM444.388 67H420.196V71H444.388V67ZM421.853 67.8798L410.429 50.9838L407.115 53.2242L418.539 70.1202L421.853 67.8798ZM422.1 27.144C422.1 24.2111 421.178 21.6859 419.113 19.8788L416.479 22.8892C417.486 23.7701 418.1 25.0849 418.1 27.144H422.1ZM419.147 19.9097C417.101 18.0336 414.223 17.272 410.884 17.272V21.272C413.689 21.272 415.419 21.9184 416.445 22.8583L419.147 19.9097ZM410.884 17.272H402.628V21.272H410.884V17.272ZM400.628 19.272V35.016H404.628V19.272H400.628ZM402.628 37.016H410.884V33.016H402.628V37.016ZM410.884 37.016C414.204 37.016 417.067 36.2956 419.113 34.5051L416.479 31.4948C415.453 32.3924 413.708 33.016 410.884 33.016V37.016ZM419.147 34.4743C421.178 32.6131 422.1 30.0801 422.1 27.144H418.1C418.1 29.1999 417.486 30.5709 416.445 31.5257L419.147 34.4743ZM497.295 57.288L499.162 56.569L498.668 55.288H497.295V57.288ZM471.759 57.288V55.288H470.386L469.893 56.569L471.759 57.288ZM467.247 69V71H468.62L469.114 69.719L467.247 69ZM444.207 69L442.375 68.1989L441.15 71H444.207V69ZM473.583 1.8V-0.200005H472.275L471.751 0.998907L473.583 1.8ZM495.855 1.8L497.688 0.998907L497.164 -0.200005H495.855V1.8ZM525.231 69V71H528.288L527.064 68.1989L525.231 69ZM501.807 69L499.941 69.719L500.434 71H501.807V69ZM491.055 40.968V42.968H493.972L492.921 40.2472L491.055 40.968ZM484.527 24.072L486.393 23.3512L484.527 18.5226L482.662 23.3512L484.527 24.072ZM477.999 40.968L476.134 40.2472L475.082 42.968H477.999V40.968ZM497.295 55.288H471.759V59.288H497.295V55.288ZM469.893 56.569L465.381 68.281L469.114 69.719L473.626 58.007L469.893 56.569ZM467.247 67H444.207V71H467.247V67ZM446.04 69.8011L475.416 2.60108L471.751 0.998907L442.375 68.1989L446.04 69.8011ZM473.583 3.8H495.855V-0.200005H473.583V3.8ZM494.023 2.60108L523.399 69.8011L527.064 68.1989L497.688 0.998907L494.023 2.60108ZM525.231 67H501.807V71H525.231V67ZM503.674 68.281L499.162 56.569L495.429 58.007L499.941 69.719L503.674 68.281ZM492.921 40.2472L486.393 23.3512L482.662 24.7928L489.19 41.6888L492.921 40.2472ZM482.662 23.3512L476.134 40.2472L479.865 41.6888L486.393 24.7928L482.662 23.3512ZM477.999 42.968H491.055V38.968H477.999V42.968ZM596.811 1.8L598.653 2.57893L599.828 -0.200005H596.811V1.8ZM568.395 69V71H569.721L570.237 69.7789L568.395 69ZM546.123 69L544.281 69.7789L544.797 71H546.123V69ZM517.707 1.8V-0.200005H514.69L515.865 2.57893L517.707 1.8ZM542.091 1.8L543.943 1.04396L543.435 -0.200005H542.091V1.8ZM558.123 41.064L556.272 41.82L558.101 46.3012L559.968 41.8355L558.123 41.064ZM574.539 1.8V-0.200005H573.208L572.694 1.02852L574.539 1.8ZM594.969 1.02106L566.553 68.2211L570.237 69.7789L598.653 2.57893L594.969 1.02106ZM568.395 67H546.123V71H568.395V67ZM547.965 68.2211L519.549 1.02106L515.865 2.57893L544.281 69.7789L547.965 68.2211ZM517.707 3.8H542.091V-0.200005H517.707V3.8ZM540.24 2.55603L556.272 41.82L559.975 40.308L543.943 1.04396L540.24 2.55603ZM559.968 41.8355L576.384 2.57147L572.694 1.02852L556.278 40.2925L559.968 41.8355ZM574.539 3.8H596.811V-0.200005H574.539V3.8ZM654.938 51.912H656.938V49.912H654.938V51.912ZM654.938 69V71H656.938V69H654.938ZM599.066 69H597.066V71H599.066V69ZM599.066 1.8V-0.200005H597.066V1.8H599.066ZM653.69 1.8H655.69V-0.200005H653.69V1.8ZM653.69 18.888V20.888H655.69V18.888H653.69ZM621.338 18.888V16.888H619.338V18.888H621.338ZM621.338 26.76H619.338V28.76H621.338V26.76ZM649.754 26.76H651.754V24.76H649.754V26.76ZM649.754 43.08V45.08H651.754V43.08H649.754ZM621.338 43.08V41.08H619.338V43.08H621.338ZM621.338 51.912H619.338V53.912H621.338V51.912ZM652.938 51.912V69H656.938V51.912H652.938ZM654.938 67H599.066V71H654.938V67ZM601.066 69V1.8H597.066V69H601.066ZM599.066 3.8H653.69V-0.200005H599.066V3.8ZM651.69 1.8V18.888H655.69V1.8H651.69ZM653.69 16.888H621.338V20.888H653.69V16.888ZM619.338 18.888V26.76H623.338V18.888H619.338ZM621.338 28.76H649.754V24.76H621.338V28.76ZM647.754 26.76V43.08H651.754V26.76H647.754ZM649.754 41.08H621.338V45.08H649.754V41.08ZM619.338 43.08V51.912H623.338V43.08H619.338ZM621.338 53.912H654.938V49.912H621.338V53.912ZM663.659 1.8V-0.200005H661.659V1.8H663.659ZM686.315 1.8H688.315V-0.200005H686.315V1.8ZM686.315 51.432H684.315V53.432H686.315V51.432ZM716.651 51.432H718.651V49.432H716.651V51.432ZM716.651 69V71H718.651V69H716.651ZM663.659 69H661.659V71H663.659V69ZM663.659 3.8H686.315V-0.200005H663.659V3.8ZM684.315 1.8V51.432H688.315V1.8H684.315ZM686.315 53.432H716.651V49.432H686.315V53.432ZM714.651 51.432V69H718.651V51.432H714.651ZM716.651 67H663.659V71H716.651V67ZM665.659 69V1.8H661.659V69H665.659Z" fill="white"/>
</svg>
